<svg width="120" height="120" viewBox="0 0 120 120" fill="none" xmlns="http://www.w3.org/2000/svg">
  <!-- Background circle with gradient -->
  <defs>
    <linearGradient id="bgGradient" x1="0%" y1="0%" x2="100%" y2="100%">
      <stop offset="0%" style="stop-color:#3B82F6;stop-opacity:1" />
      <stop offset="100%" style="stop-color:#1D4ED8;stop-opacity:1" />
    </linearGradient>
    <linearGradient id="textGradient" x1="0%" y1="0%" x2="100%" y2="100%">
      <stop offset="0%" style="stop-color:#FFFFFF;stop-opacity:1" />
      <stop offset="100%" style="stop-color:#F1F5F9;stop-opacity:1" />
    </linearGradient>
    <linearGradient id="accentGradient" x1="0%" y1="0%" x2="100%" y2="100%">
      <stop offset="0%" style="stop-color:#10B981;stop-opacity:1" />
      <stop offset="100%" style="stop-color:#059669;stop-opacity:1" />
    </linearGradient>
  </defs>

  <!-- Background circle -->
  <circle cx="60" cy="60" r="55" fill="url(#bgGradient)" stroke="#FFFFFF" stroke-width="2"/>

  <!-- Document/essay representation -->
  <rect x="30" y="22" width="45" height="60" rx="3" fill="url(#textGradient)" opacity="0.9"/>

  <!-- Lines representing text -->
  <rect x="37" y="34" width="30" height="3" fill="url(#bgGradient)" opacity="0.7"/>
  <rect x="37" y="41" width="22" height="3" fill="url(#bgGradient)" opacity="0.5"/>
  <rect x="37" y="48" width="26" height="3" fill="url(#bgGradient)" opacity="0.7"/>
  <rect x="37" y="55" width="18" height="3" fill="url(#bgGradient)" opacity="0.5"/>
  <rect x="37" y="62" width="30" height="3" fill="url(#bgGradient)" opacity="0.7"/>
  <rect x="37" y="69" width="24" height="3" fill="url(#bgGradient)" opacity="0.5"/>

  <!-- Upward arrow representing improvement/uplift -->
  <path d="M75 67l-5.5-5.5-5.5 5.5v-11h11v11z" fill="url(#accentGradient)"/>

  <!-- AI/analysis dots -->
  <circle cx="82" cy="37" r="3" fill="url(#accentGradient)" opacity="0.8"/>
  <circle cx="90" cy="45" r="2.5" fill="url(#accentGradient)" opacity="0.6"/>
  <circle cx="82" cy="53" r="2.5" fill="url(#accentGradient)" opacity="0.6"/>

  <!-- Small checkmark for success -->
  <path d="M22 75l7-7 7 7" stroke="url(#accentGradient)" stroke-width="5" stroke-linecap="round" stroke-linejoin="round"/>
</svg>



